# xmcd
#
# Track frame offsets: 
#        150
#        23102
#        43252
#        64257
#        81937
#        102567
#        117727
#        134635
#        152935
#        177537
#        196727
#        219442
#        247680
#        277017
#        292680
#
# Disc length: 4295 seconds
#
# Revision: 0
# Processed by: cddbd v1.5.2PL0 Copyright (c) Steve Scherf et al.
# Submitted via: ExactAudioCopyFreeDBPlugin 1.0
#
DISCID=e410c50f
DTITLE=Iwan Fals - Album No 1
DYEAR=1996
DGENRE=Country
TTITLE0=Antara Aku, Kau Dan Bekas Pacarmu
TTITLE1=Mata Indah Bola Pingpong
TTITLE2=Buku Ini Aku Pinjam
TTITLE3=Galang Rambu Anarki
TTITLE4=Yang Tersendiri
TTITLE5=Kumenanti Seorang Kekasih
TTITLE6=Aku Antarkan
TTITLE7=Kembang Pete
TTITLE8=Kemesraan
TTITLE9=Guru Oemar Bakri
TTITLE10=Sarjana Muda
TTITLE11=Opiniku
TTITLE12=Sumbang
TTITLE13=Barang Antik
TTITLE14=Surat Buat Wakil Rakyat
EXTD=
EXTT0=
EXTT1=
EXTT2=
EXTT3=
EXTT4=
EXTT5=
EXTT6=
EXTT7=
EXTT8=
EXTT9=
EXTT10=
EXTT11=
EXTT12=
EXTT13=
EXTT14=
PLAYORDER=
